<svg xmlns="http://www.w3.org/2000/svg" viewBox="0 0 512 512" role="img" aria-label="Bloomie owl icon">
  <defs>
    <linearGradient id="bg" x1="0%" y1="0%" x2="100%" y2="100%">
      <stop offset="0%" stop-color="#120f1d"/>
      <stop offset="100%" stop-color="#241a37"/>
    </linearGradient>
    <radialGradient id="owlBody" cx="40%" cy="30%" r="60%">
      <stop offset="0%" stop-color="#9B7E5C"/>
      <stop offset="100%" stop-color="#6B5230"/>
    </radialGradient>
    <radialGradient id="owlTummy" cx="50%" cy="40%" r="60%">
      <stop offset="0%" stop-color="#E8D5B5"/>
      <stop offset="100%" stop-color="#C9A96E"/>
    </radialGradient>
    <radialGradient id="owlEye" cx="40%" cy="30%" r="60%">
      <stop offset="0%" stop-color="#FFF176"/>
      <stop offset="100%" stop-color="#FFD101"/>
    </radialGradient>
    <filter id="owlShadow" x="-20%" y="-20%" width="140%" height="140%">
      <feDropShadow dx="0" dy="10" stdDeviation="12" flood-color="#6B5230" flood-opacity="0.32"/>
    </filter>
  </defs>
  <rect width="512" height="512" rx="120" fill="url(#bg)"/>
  <g transform="translate(78 34) scale(3.95)">
    <ellipse cx="45" cy="107" rx="25" ry="5" fill="rgba(107,82,48,0.2)"/>
    <ellipse cx="45" cy="76" rx="28" ry="32" fill="url(#owlBody)" filter="url(#owlShadow)"/>
    <ellipse cx="45" cy="80" rx="16" ry="20" fill="url(#owlTummy)"/>
    <path d="M 33 70 Q 45 73 57 70" fill="none" stroke="rgba(107,82,48,0.25)" stroke-width="1.5"/>
    <path d="M 31 77 Q 45 80 59 77" fill="none" stroke="rgba(107,82,48,0.25)" stroke-width="1.5"/>
    <path d="M 33 84 Q 45 87 57 84" fill="none" stroke="rgba(107,82,48,0.25)" stroke-width="1.5"/>
    <ellipse cx="18" cy="74" rx="12" ry="22" fill="#7A6040" transform="rotate(-10,18,74)"/>
    <ellipse cx="72" cy="74" rx="12" ry="22" fill="#7A6040" transform="rotate(10,72,74)"/>
    <path d="M 33 106 L 28 108 M 33 106 L 33 110 M 33 106 L 38 108" stroke="#F5A800" stroke-width="3" stroke-linecap="round"/>
    <path d="M 57 106 L 52 108 M 57 106 L 57 110 M 57 106 L 62 108" stroke="#F5A800" stroke-width="3" stroke-linecap="round"/>
    <circle cx="45" cy="42" r="28" fill="url(#owlBody)" filter="url(#owlShadow)"/>
    <path d="M 26 20 L 22 6 L 34 16" fill="#6B5230"/>
    <path d="M 64 20 L 68 6 L 56 16" fill="#6B5230"/>
    <ellipse cx="45" cy="44" rx="22" ry="20" fill="url(#owlTummy)" opacity="0.7"/>
    <circle cx="34" cy="42" r="11" fill="white" stroke="#6B5230" stroke-width="1.5"/>
    <circle cx="56" cy="42" r="11" fill="white" stroke="#6B5230" stroke-width="1.5"/>
    <circle cx="34" cy="42" r="8" fill="url(#owlEye)"/>
    <circle cx="56" cy="42" r="8" fill="url(#owlEye)"/>
    <circle cx="34" cy="42" r="5" fill="#1a1a2e"/>
    <circle cx="56" cy="42" r="5" fill="#1a1a2e"/>
    <circle cx="36" cy="40" r="2" fill="white" opacity="0.9"/>
    <circle cx="58" cy="40" r="2" fill="white" opacity="0.9"/>
    <path d="M 40 50 L 45 58 L 50 50 Z" fill="#F5A800"/>
    <ellipse cx="23" cy="50" rx="6" ry="4.5" fill="rgba(255,100,100,0.25)"/>
    <ellipse cx="67" cy="50" rx="6" ry="4.5" fill="rgba(255,100,100,0.25)"/>
    <rect x="25" y="16" width="40" height="5" rx="2" fill="#1a1a2e"/>
    <rect x="32" y="10" width="26" height="8" rx="2" fill="#1a1a2e"/>
    <line x1="62" y1="18" x2="68" y2="26" stroke="#FFD101" stroke-width="2"/>
    <circle cx="69" cy="28" r="3" fill="#FFD101"/>
  </g>
</svg>
